<?xml version="1.0" encoding="iso-8859-1"?>
<!-- Generator: Adobe Illustrator 19.0.0, SVG Export Plug-In . SVG Version: 6.00 Build 0)  -->
<svg version="1.1" id="Layer_1" xmlns="http://www.w3.org/2000/svg" xmlns:xlink="http://www.w3.org/1999/xlink" x="0px" y="0px"
	 viewBox="0 0 512 512" style="enable-background:new 0 0 512 512;" xml:space="preserve">
<g>
	<g>
		<path d="M483.639,109.714C495.835,97.783,502.857,81.399,502.857,64c0-35.282-28.718-64-64-64
			c-17.399,0-33.783,7.022-45.714,19.218C381.211,7.022,364.827,0,347.429,0s-33.783,7.022-45.714,19.218
			C289.783,7.022,273.399,0,256,0s-33.783,7.022-45.714,19.218C198.354,7.022,181.97,0,164.571,0
			c-17.399,0-33.783,7.022-45.714,19.218C106.926,7.022,90.542,0,73.143,0c-35.282,0-64,28.718-64,64
			c0,17.399,7.022,33.783,19.218,45.714C16.165,121.646,9.143,138.03,9.143,155.429s7.022,33.783,19.218,45.714
			c-12.197,11.931-19.218,28.315-19.218,45.714c0,17.399,7.022,33.783,19.218,45.714c-12.197,11.931-19.218,28.315-19.218,45.714
			c0,35.282,28.718,64,64,64c32.174,0,58.807-23.899,63.269-54.857h114.222c-18.651,11.2-31.205,31.561-31.205,54.857V512h18.286
			V402.286c0-25.207,20.507-45.714,45.714-45.714c2.706,0,5.541,0.274,8.43,0.814c2.971,0.567,6.016-0.375,8.155-2.514
			c2.13-2.13,3.081-5.175,2.514-8.155c-0.539-2.889-0.814-5.723-0.814-8.43c0-25.207,20.507-45.714,45.714-45.714
			c15.351,0,29.586,7.653,38.098,20.462c1.701,2.551,4.553,4.087,7.616,4.087s5.915-1.527,7.616-4.078
			c3.401-5.129,7.735-9.454,12.855-12.855c2.551-1.701,4.078-4.562,4.078-7.616c0-3.063-1.536-5.915-4.087-7.616
			c-12.809-8.512-20.462-22.747-20.462-38.098c0-15.351,7.653-29.586,20.462-38.098c2.551-1.701,4.087-4.553,4.087-7.616
			s-1.536-5.915-4.087-7.616c-12.809-8.512-20.462-22.747-20.462-38.098c0-15.351,7.653-29.586,20.462-38.098
			c2.551-1.701,4.087-4.553,4.087-7.616c0-3.054-1.527-5.915-4.078-7.616c-5.129-3.401-9.454-7.735-12.855-12.855
			c-1.701-2.551-4.553-4.078-7.616-4.078s-5.915,1.536-7.616,4.087c-8.512,12.809-22.747,20.462-38.098,20.462
			s-29.586-7.653-38.098-20.462c-3.392-5.111-11.84-5.111-15.232,0c-8.512,12.809-22.747,20.462-38.098,20.462
			c-15.351,0-29.586-7.653-38.098-20.462c-3.392-5.111-11.84-5.111-15.232,0c-8.512,12.809-22.747,20.462-38.098,20.462
			c-15.351,0-29.586-7.653-38.098-20.462c-1.701-2.551-4.553-4.087-7.616-4.087c-3.063,0-5.915,1.527-7.616,4.078
			c-3.401,5.129-7.735,9.454-12.855,12.855c-2.551,1.701-4.078,4.562-4.078,7.616c0,3.063,1.536,5.915,4.087,7.616
			c12.809,8.512,20.462,22.747,20.462,38.098c0,15.351-7.653,29.586-20.462,38.098c-2.551,1.701-4.087,4.553-4.087,7.616
			s1.536,5.915,4.087,7.616c12.809,8.512,20.462,22.747,20.462,38.098c0,15.351-7.653,29.586-20.462,38.098
			c-2.551,1.701-4.087,4.553-4.087,7.616s1.536,5.915,4.087,7.616c12.809,8.512,20.462,22.747,20.462,38.098
			c0,25.207-20.507,45.714-45.714,45.714c-25.207,0-45.714-20.507-45.714-45.714c0-15.351,7.653-29.586,20.462-38.098
			c2.56-1.701,4.096-4.553,4.096-7.616c0-3.063-1.536-5.915-4.087-7.616c-12.818-8.512-20.471-22.747-20.471-38.098
			c0-15.351,7.653-29.586,20.462-38.098c2.56-1.701,4.096-4.553,4.096-7.616s-1.536-5.915-4.087-7.616
			c-12.818-8.512-20.471-22.747-20.471-38.098c0-15.351,7.653-29.586,20.462-38.098c2.56-1.701,4.096-4.553,4.096-7.616
			s-1.536-5.915-4.087-7.616C35.081,93.586,27.429,79.351,27.429,64c0-25.207,20.507-45.714,45.714-45.714
			c15.351,0,29.586,7.653,38.098,20.462c3.392,5.111,11.84,5.111,15.232,0c8.512-12.809,22.747-20.462,38.098-20.462
			c15.351,0,29.586,7.653,38.098,20.462c3.392,5.111,11.84,5.111,15.232,0c8.512-12.809,22.747-20.462,38.098-20.462
			c15.351,0,29.586,7.653,38.098,20.462c3.392,5.111,11.84,5.111,15.232,0c8.512-12.809,22.747-20.462,38.098-20.462
			s29.586,7.653,38.098,20.462c3.392,5.111,11.84,5.111,15.232,0c8.512-12.809,22.747-20.462,38.098-20.462
			c25.207,0,45.714,20.507,45.714,45.714c0,15.351-7.653,29.586-20.462,38.098c-2.551,1.701-4.087,4.553-4.087,7.616
			s1.536,5.915,4.087,7.616c12.809,8.512,20.462,22.747,20.462,38.098c0,15.351-7.653,29.586-20.462,38.098
			c-2.551,1.701-4.087,4.553-4.087,7.616s1.536,5.915,4.087,7.616c12.809,8.512,20.462,22.747,20.462,38.098
			c0,15.351-7.653,29.586-20.462,38.098c-2.551,1.701-4.087,4.553-4.087,7.616s1.536,5.915,4.087,7.616
			c12.809,8.512,20.462,22.747,20.462,38.098c0,25.207-20.507,45.714-45.714,45.714c-15.351,0-29.586-7.653-38.098-20.462
			c-3.392-5.111-11.84-5.111-15.232,0C377.015,376.347,362.779,384,347.429,384c-2.706,0-5.541-0.274-8.43-0.814
			c-2.971-0.567-6.016,0.384-8.155,2.514c-2.139,2.13-3.081,5.175-2.514,8.155c0.539,2.889,0.814,5.723,0.814,8.43
			c0,25.207-20.507,45.714-45.714,45.714c-5.056,0-9.143,4.087-9.143,9.143V512h18.286v-46.363
			c30.976-4.443,54.857-31.159,54.857-63.351c17.399,0,33.783-7.022,45.714-19.218c11.931,12.197,28.315,19.218,45.714,19.218
			c35.282,0,64-28.718,64-64c0-17.399-7.022-33.783-19.218-45.714c12.197-11.931,19.218-28.315,19.218-45.714
			c0-17.399-7.022-33.783-19.218-45.714c12.197-11.931,19.218-28.315,19.218-45.714S495.835,121.646,483.639,109.714z
			 M394.075,201.143c-12.197,11.931-19.218,28.315-19.218,45.714c0,17.408,7.031,33.792,19.227,45.723
			c-0.311,0.302-0.622,0.613-0.933,0.933c-11.931-12.197-28.315-19.227-45.723-19.227c-11.995,0-23.186,3.374-32.795,9.143H187.429
			c-7.561,0-13.714-6.153-13.714-13.714S179.867,256,187.429,256h146.286c17.646,0,32-14.354,32-32c0-17.646-14.354-32-32-32
			H187.429c-7.561,0-13.714-6.153-13.714-13.714c0-7.561,6.153-13.714,13.714-13.714h188.16
			C377.591,178.496,384.046,191.333,394.075,201.143z M117.925,292.571c12.197-11.931,19.218-28.315,19.218-45.714
			c0-17.399-7.022-33.783-19.218-45.714c12.197-11.931,19.218-28.315,19.218-45.714c0-17.408-7.031-33.792-19.227-45.723
			c0.311-0.302,0.622-0.613,0.933-0.933C130.779,120.969,147.163,128,164.571,128c17.399,0,33.783-7.022,45.714-19.218
			C222.217,120.978,238.601,128,256,128s33.783-7.022,45.714-19.218C313.646,120.978,330.03,128,347.429,128
			c17.408,0,33.792-7.031,45.723-19.227c0.302,0.311,0.613,0.622,0.933,0.933c-10.03,9.81-16.485,22.656-18.496,36.581h-188.16
			c-17.646,0-32,14.354-32,32c0,17.646,14.354,32,32,32h146.286c7.561,0,13.714,6.153,13.714,13.714s-6.153,13.714-13.714,13.714
			H187.429c-17.646,0-32,14.354-32,32s14.354,32,32,32h107.557c-5.595,8-9.371,17.335-10.825,27.429H136.411
			C134.409,315.218,127.954,302.382,117.925,292.571z"/>
	</g>
</g>
<g>
</g>
<g>
</g>
<g>
</g>
<g>
</g>
<g>
</g>
<g>
</g>
<g>
</g>
<g>
</g>
<g>
</g>
<g>
</g>
<g>
</g>
<g>
</g>
<g>
</g>
<g>
</g>
<g>
</g>
</svg>
